<svg xmlns="http://www.w3.org/2000/svg" width="850" height="1000" viewBox="0 0 850 1000"><defs><filter id="shadow" x="-100%" y="-100%" width="300%" height="300%"><feDropShadow dx="8" dy="15" stdDeviation="10" flood-color="#62513e" flood-opacity=".2"/></filter><linearGradient id="gloss" x1="0" x2="1" y2=".3"><stop stop-color="#fff" stop-opacity=".12"/><stop offset=".45" stop-color="#fff" stop-opacity="0"/><stop offset="1" stop-color="#776550" stop-opacity=".13"/></linearGradient><radialGradient id="bg"><stop stop-color="#f7f2e9"/><stop offset="1" stop-color="#ded4c4"/></radialGradient><filter id="blur"><feGaussianBlur stdDeviation="18"/></filter></defs><rect width="850" height="1000" fill="url(#bg)"/><g opacity=".12" filter="url(#blur)" stroke="#76684e" stroke-width="22"><path d="M650-50L850 720M580-50L790 770M510-50L710 790"/></g><ellipse cx="422" cy="623" rx="290" ry="204" fill="#c7baa5" opacity=".3" filter="url(#blur)"/><path d="M176 552Q182 338 450 334Q684 345 697 577Q710 779 444 799Q166 783 176 552" fill="#f4efe5" stroke="#e4dbcc" stroke-width="3" transform="rotate(-15 430 560)"/><g transform="rotate(-16 425 540)"><g transform="translate(255 485) rotate(-15) scale(1.2)" filter="url(#shadow)"><path d="M-40 0C-40-61 40-61 40 0L36 99Q0 124-36 99Z" fill="#d8c3b3"/><path d="M-24-15Q-29 10-26 55" fill="none" stroke="white" opacity=".4" stroke-width="6" stroke-linecap="round"/><path d="M-40 0C-40-61 40-61 40 0L36 99Q0 124-36 99Z" fill="url(#gloss)"/></g><g transform="translate(368 447) rotate(-6) scale(1.2)" filter="url(#shadow)"><path d="M-40 0C-40-61 40-61 40 0L36 99Q0 124-36 99Z" fill="#ece0d0"/><path d="M-35 40Q-10 52 4 29T36 16" stroke="#a68b55" stroke-width="2.5" fill="none"/><path d="M-20 44l6 6m18-19 5 3m12-15 5 3" stroke="#e3c78e" stroke-width="4"/><path d="M-24-15Q-29 10-26 55" fill="none" stroke="white" opacity=".4" stroke-width="6" stroke-linecap="round"/><path d="M-40 0C-40-61 40-61 40 0L36 99Q0 124-36 99Z" fill="url(#gloss)"/></g><g transform="translate(485 449) rotate(5) scale(1.2)" filter="url(#shadow)"><path d="M-40 0C-40-61 40-61 40 0L36 99Q0 124-36 99Z" fill="#d8c6b2"/><path d="M-32-24Q32 0-15 32T28 98M-32 8Q35 33-8 65T22 101" fill="none" stroke="#997357" stroke-width="8" opacity=".33"/><path d="M-28-15Q20 20-8 50T25 90" fill="none" stroke="#f6e4cb" stroke-width="5"/><path d="M-24-15Q-29 10-26 55" fill="none" stroke="white" opacity=".4" stroke-width="6" stroke-linecap="round"/><path d="M-40 0C-40-61 40-61 40 0L36 99Q0 124-36 99Z" fill="url(#gloss)"/></g><g transform="translate(590 476) rotate(15) scale(1.15)" filter="url(#shadow)"><path d="M-40 0C-40-61 40-61 40 0L36 99Q0 124-36 99Z" fill="#aa9482"/><path d="M-24-15Q-29 10-26 55" fill="none" stroke="white" opacity=".4" stroke-width="6" stroke-linecap="round"/><path d="M-40 0C-40-61 40-61 40 0L36 99Q0 124-36 99Z" fill="url(#gloss)"/></g><g transform="translate(422 661) rotate(60) scale(1.1)" filter="url(#shadow)"><path d="M-40 0C-40-61 40-61 40 0L36 99Q0 124-36 99Z" fill="#f0e4d3"/><path d="M-35 40Q-10 52 4 29T36 16" stroke="#a68b55" stroke-width="2.5" fill="none"/><path d="M-20 44l6 6m18-19 5 3m12-15 5 3" stroke="#e3c78e" stroke-width="4"/><path d="M-24-15Q-29 10-26 55" fill="none" stroke="white" opacity=".4" stroke-width="6" stroke-linecap="round"/><path d="M-40 0C-40-61 40-61 40 0L36 99Q0 124-36 99Z" fill="url(#gloss)"/></g></g><path d="M49 970Q164 781 128 670M105 841Q19 813 11 748M127 781Q197 744 204 681" fill="none" stroke="#9d9c80" stroke-width="5" opacity=".65"/><ellipse cx="80" cy="814" rx="18" ry="54" transform="rotate(-48 80 814)" fill="#a4a48c"/><ellipse cx="166" cy="739" rx="18" ry="55" transform="rotate(35 166 739)" fill="#b0ae94"/></svg>